PathFileType   4   (X/Y/Z)
DataRate	CameraRate	NumFrames	NumMarkers	Units	OrigDataRate	OrigDataStartFrame	OrigNumFrames
120.0	120.0	5	37	mm	120.0	1	116
Frame#	Time	midhip	hip_r	hip_l	knee_r	knee_l	ankle_r	ankle_l	midasis	asis_r	asis_l	psis_r	psis_l	epicondLat_r	epicondLat_l	epicondMed_r	epicondMed_l	malleolusLat_r	malleolusLat_l	malleolusMedv_r	malleolusMedv_l	neck	subclavicle_r	subclavicle_l	sternalnotch	xyphoidprocess	thighwand_r	thighwand_l	upperleg1_r	upperleg1_l	upperleg2_r	upperleg2_l	shankwand_r	shankwand_l	lowerleg1_r	lowerleg1_l	toe_r	toe_l
 	 	X1	Y1	Z1	X2	Y2	Z2	X3	Y3	Z3	X4	Y4	Z4	X5	Y5	Z5	X6	Y6	Z6	X7	Y7	Z7	X8	Y8	Z8	X9	Y9	Z9	X10	Y10	Z10	X11	Y11	Z11	X12	Y12	Z12	X13	Y13	Z13	X14	Y14	Z14	X15	Y15	Z15	X16	Y16	Z16	X17	Y17	Z17	X18	Y18	Z18	X19	Y19	Z19	X20	Y20	Z20	X21	Y21	Z21	X22	Y22	Z22	X23	Y23	Z23	X24	Y24	Z24	X25	Y25	Z25	X26	Y26	Z26	X27	Y27	Z27	X28	Y28	Z28	X29	Y29	Z29	X30	Y30	Z30	X31	Y31	Z31	X32	Y32	Z32	X33	Y33	Z33	X34	Y34	Z34	X35	Y35	Z35	X36	Y36	Z36	X37	Y37	Z37

	1	0.10833	1189.541	647.045	-164.865	1184.230	662.363	-102.384	1180.454	646.564	-227.160	1344.573	383.188	-136.977	1079.528	344.608	-225.788	1341.959	55.797	-116.402	816.715	156.112	-233.747	1247.915	717.318	-174.715	1250.728	729.088	-81.757	1245.102	705.548	-267.672	1102.306	758.049	-153.687	1100.543	748.008	-207.353	1354.020	382.468	-87.374	1070.897	347.269	-274.966	1342.285	379.715	-183.513	1093.986	336.140	-170.376	1344.344	57.874	-83.052	813.388	162.177	-267.547	1341.076	63.007	-144.281	812.953	164.996	-205.816	1125.147	1097.157	-166.082	1202.916	1054.741	-100.986	1209.972	1062.838	-229.006	1201.787	1047.634	-168.779	1233.197	906.693	-174.972	1322.677	463.347	0.214	1238.898	412.004	-284.251	1317.199	532.611	-66.123	1201.347	475.560	-210.748	1362.623	465.050	-88.691	1161.149	394.872	-204.055	1349.797	160.858	-15.220	944.315	144.118	-274.146	1352.727	214.332	-78.764	953.519	222.838	-251.779	1440.636	39.266	-121.980	813.662	61.290	-230.213
	2	0.11667	1201.177	648.516	-163.639	1196.209	664.011	-101.187	1191.942	647.792	-225.893	1351.547	382.944	-137.119	1102.155	341.748	-226.407	1342.258	55.813	-116.740	834.748	160.246	-233.645	1259.681	718.648	-173.946	1262.861	730.734	-81.012	1256.501	706.561	-266.879	1114.183	759.739	-152.507	1112.043	749.325	-206.064	1361.371	382.041	-87.592	1093.038	344.505	-275.492	1347.679	378.476	-183.145	1121.845	329.769	-173.026	1344.760	57.819	-83.394	831.635	166.181	-267.488	1341.191	62.957	-144.618	832.148	168.688	-205.775	1136.792	1098.717	-165.294	1214.863	1056.349	-100.294	1221.668	1064.623	-228.317	1213.610	1049.303	-168.056	1245.349	908.464	-174.521	1332.048	463.224	0.230	1258.477	414.144	-285.694	1326.862	532.039	-65.823	1220.029	475.275	-211.525	1370.656	463.564	-88.684	1185.340	393.834	-206.270	1352.475	160.622	-15.612	962.027	144.415	-273.843	1355.608	214.130	-79.189	974.136	222.490	-252.250	1440.917	38.961	-122.300	827.090	65.103	-228.707
	3	0.12500	1212.387	650.283	-162.587	1207.804	665.864	-100.176	1203.061	649.353	-224.827	1357.614	382.750	-137.166	1125.315	339.496	-226.997	1342.579	55.840	-117.012	853.938	164.295	-233.359	1271.148	720.175	-173.290	1274.684	732.484	-80.364	1267.612	707.866	-266.216	1125.813	761.808	-151.377	1123.273	751.052	-204.842	1367.645	381.593	-87.686	1115.539	342.291	-275.952	1352.826	378.081	-183.092	1146.894	326.083	-174.441	1345.031	57.783	-83.659	851.053	169.995	-267.262	1341.282	62.967	-144.859	851.848	172.944	-205.551	1148.352	1100.614	-164.564	1226.702	1058.261	-99.724	1233.132	1066.616	-227.753	1225.283	1051.236	-167.471	1257.135	910.452	-174.120	1340.252	462.962	0.271	1277.858	416.933	-287.521	1335.673	531.774	-65.439	1238.854	475.570	-212.721	1377.896	462.563	-88.563	1207.394	392.958	-207.923	1354.357	160.428	-15.896	980.927	144.904	-273.160	1357.466	214.028	-79.408	995.386	222.086	-252.147	1441.080	38.778	-122.564	842.841	68.967	-226.978
	4	0.13333	1223.218	652.330	-161.717	1219.018	667.915	-99.340	1213.858	651.234	-223.952	1362.869	382.620	-137.103	1148.896	337.983	-227.527	1342.894	55.868	-117.211	874.210	168.196	-232.863	1282.317	721.919	-172.719	1286.166	734.360	-79.780	1278.469	709.478	-265.658	1137.166	764.203	-150.357	1134.223	753.142	-203.758	1372.996	381.181	-87.650	1138.320	340.733	-276.318	1356.706	378.537	-183.582	1172.114	323.874	-175.147	1345.200	57.758	-83.844	871.550	173.567	-266.839	1341.303	62.979	-145.017	872.090	178.177	-205.198	1159.798	1102.762	-163.850	1238.395	1060.480	-99.288	1244.415	1068.808	-227.323	1236.820	1053.425	-167.001	1268.702	912.675	-173.737	1347.498	462.692	0.348	1296.975	420.410	-289.607	1343.952	531.757	-64.828	1257.799	476.659	-214.361	1384.300	461.775	-88.609	1229.493	393.196	-209.472	1355.685	160.274	-16.060	1000.981	145.605	-272.109	1358.756	213.914	-79.591	1017.081	222.244	-251.650	1441.166	38.669	-122.769	861.000	72.750	-225.126
	5	0.14167	1233.719	654.630	-161.039	1229.871	670.141	-98.665	1224.390	653.418	-223.257	1367.415	382.553	-136.919	1172.771	337.314	-227.981	1343.172	55.894	-117.336	895.487	171.859	-232.144	1293.202	723.889	-172.204	1297.292	736.369	-79.227	1289.112	711.409	-265.181	1148.227	766.855	-149.484	1144.888	755.541	-202.858	1377.578	380.838	-87.482	1161.305	339.912	-276.579	1359.993	379.362	-184.119	1198.919	322.421	-175.592	1345.301	57.738	-83.954	893.031	176.833	-266.195	1341.276	63.046	-145.107	893.462	183.774	-204.759	1171.162	1105.152	-163.162	1250.035	1062.971	-99.017	1255.529	1071.252	-227.049	1248.231	1055.856	-166.623	1280.148	915.159	-173.516	1353.982	462.517	0.480	1315.803	424.604	-291.803	1351.689	531.978	-64.204	1276.420	478.688	-216.241	1390.137	461.182	-88.688	1252.303	394.804	-211.068	1356.678	160.145	-16.108	1022.138	146.532	-270.749	1359.908	213.813	-79.625	1039.419	223.235	-250.903	1441.204	38.603	-122.911	881.545	76.317	-223.274
